<svg xmlns="http://www.w3.org/2000/svg" xmlns:xlink="http://www.w3.org/1999/xlink" width="500" zoomAndPan="magnify" viewBox="0 0 375 174.749997" height="233" preserveAspectRatio="xMidYMid meet" version="1.0"><defs><g/><clipPath id="171a7e9952"><path d="M 0.269531 75.058594 L 374.730469 75.058594 L 374.730469 99.734375 L 0.269531 99.734375 Z M 0.269531 75.058594 " clip-rule="nonzero"/></clipPath></defs><g fill="#18392b" fill-opacity="1"><g transform="translate(95.592427, 122.330642)"><g><path d="M 63.953125 -73.390625 L 63.953125 -31.453125 C 63.953125 -19.847656 61.15625 -11.039062 55.5625 -5.03125 C 50.53125 0.351562 43.679688 3.046875 35.015625 3.046875 C 26.347656 3.046875 19.675781 0.945312 15 -3.25 C 8.84375 -8.914062 5.765625 -18.316406 5.765625 -31.453125 L 5.765625 -76.015625 L 18.140625 -76.015625 L 18.140625 -31.5625 C 18.140625 -26.738281 18.609375 -22.703125 19.546875 -19.453125 C 20.492188 -16.203125 21.875 -13.703125 23.6875 -11.953125 C 26.28125 -9.296875 30.195312 -7.96875 35.4375 -7.96875 C 39.351562 -7.96875 42.53125 -8.925781 44.96875 -10.84375 C 47.414062 -12.769531 49.304688 -15.863281 50.640625 -20.125 C 51.617188 -23.132812 52.109375 -26.945312 52.109375 -31.5625 L 52.109375 -76.015625 L 63.953125 -76.015625 Z M 63.953125 -73.390625 "/></g></g></g><g fill="#18392b" fill-opacity="1"><g transform="translate(164.478931, 122.330642)"><g><path d="M 51.578125 -53.6875 C 51.578125 -43.6875 48.363281 -36.585938 41.9375 -32.390625 L 56.828125 -1.15625 L 58.5 2.625 L 45.078125 2.625 L 44.34375 1.15625 L 30.296875 -28.40625 C 29.253906 -28.269531 28.171875 -28.164062 27.046875 -28.09375 C 25.929688 -28.03125 24.78125 -28 23.59375 -28 L 18.140625 -28 L 18.140625 2.625 L 5.765625 2.625 L 5.765625 -76.015625 L 23.59375 -76.015625 C 32.675781 -76.015625 39.382812 -74.546875 43.71875 -71.609375 C 48.957031 -68.046875 51.578125 -62.070312 51.578125 -53.6875 Z M 18.140625 -65 L 18.140625 -39 L 23.0625 -39 C 28.65625 -39 32.78125 -40.082031 35.4375 -42.25 C 37.957031 -44.207031 39.21875 -47.878906 39.21875 -53.265625 C 39.21875 -55.566406 38.898438 -57.484375 38.265625 -59.015625 C 37.640625 -60.554688 36.695312 -61.765625 35.4375 -62.640625 C 34.175781 -63.515625 32.535156 -64.128906 30.515625 -64.484375 C 29.390625 -64.691406 28.210938 -64.828125 26.984375 -64.890625 C 25.765625 -64.960938 24.457031 -65 23.0625 -65 Z M 18.140625 -65 "/></g></g></g><g fill="#18392b" fill-opacity="1"><g transform="translate(223.61437, 122.330642)"><g><path d="M 5.765625 0 L 5.765625 -76.015625 L 23.59375 -76.015625 C 32.75 -76.015625 39.457031 -74.476562 43.71875 -71.40625 C 48.957031 -67.769531 51.578125 -61.6875 51.578125 -53.15625 C 51.578125 -48.6875 50.960938 -44.703125 49.734375 -41.203125 C 48.515625 -37.710938 46.664062 -34.796875 44.1875 -32.453125 C 41.707031 -30.109375 38.648438 -28.410156 35.015625 -27.359375 C 33.335938 -26.867188 31.535156 -26.5 29.609375 -26.25 C 27.691406 -26.007812 25.6875 -25.890625 23.59375 -25.890625 L 18.140625 -25.890625 L 18.140625 2.625 L 5.765625 2.625 Z M 18.140625 -65 L 18.140625 -36.90625 L 23.0625 -36.90625 C 28.726562 -36.90625 32.851562 -38.054688 35.4375 -40.359375 C 37.957031 -42.597656 39.21875 -46.476562 39.21875 -52 C 39.21875 -53.882812 39.054688 -55.539062 38.734375 -56.96875 C 38.421875 -58.40625 38.019531 -59.523438 37.53125 -60.328125 C 37.039062 -61.140625 36.445312 -61.789062 35.75 -62.28125 C 34.425781 -63.113281 32.710938 -63.773438 30.609375 -64.265625 C 28.515625 -64.753906 26 -65 23.0625 -65 Z M 18.140625 -65 "/></g></g></g><g clip-path="url(#171a7e9952)"><path fill="#ffffff" d="M 0.269531 75.058594 L 374.742188 75.058594 L 374.742188 99.734375 L 0.269531 99.734375 Z M 0.269531 75.058594 " fill-opacity="1" fill-rule="nonzero"/></g><g fill="#1d2e28" fill-opacity="1"><g transform="translate(46.388642, 92.595777)"><g><path d="M 4.699219 0.0976562 C 6.375 0.0976562 8.304688 -0.9375 8.304688 -2.921875 L 8.304688 -9.886719 L 6.878906 -9.886719 L 6.878906 -2.9375 C 6.878906 -1.859375 5.71875 -1.3125 4.699219 -1.3125 C 3.664062 -1.3125 2.503906 -1.84375 2.503906 -2.921875 L 2.503906 -9.886719 L 1.078125 -9.886719 L 1.078125 -2.9375 C 1.078125 -0.9375 2.976562 0.0976562 4.699219 0.0976562 Z M 4.699219 0.0976562 "/></g></g></g><g fill="#1d2e28" fill-opacity="1"><g transform="translate(61.175531, 92.595777)"><g><path d="M 1.203125 -9.789062 L 1.203125 0 L 2.613281 0 L 2.613281 -6.835938 L 7.339844 0 L 8.460938 0 L 8.460938 -9.789062 L 7.0625 -9.789062 L 7.0625 -2.894531 L 2.292969 -9.789062 Z M 1.203125 -9.789062 "/></g></g></g><g fill="#1d2e28" fill-opacity="1"><g transform="translate(76.241861, 92.595777)"><g><path d="M 4.433594 -8.570312 L 6.25 -8.570312 L 6.25 -9.871094 L 1.203125 -9.871094 L 1.203125 -8.570312 L 3.019531 -8.570312 L 3.019531 -1.3125 L 1.203125 -1.3125 L 1.203125 0 L 6.25 0 L 6.25 -1.3125 L 4.433594 -1.3125 Z M 4.433594 -8.570312 "/></g></g></g><g fill="#1d2e28" fill-opacity="1"><g transform="translate(89.086616, 92.595777)"><g><path d="M 3.046875 -8.542969 L 3.046875 0 L 4.460938 0 L 4.460938 -8.542969 L 7.410156 -8.542969 L 7.410156 -9.886719 L 0.0820312 -9.886719 L 0.0820312 -8.542969 Z M 3.046875 -8.542969 "/></g></g></g><g fill="#1d2e28" fill-opacity="1"><g transform="translate(102.001229, 92.595777)"><g><path d="M 4.207031 -5.480469 L 1.453125 -9.96875 L -0.210938 -9.96875 L 3.496094 -3.984375 L 3.496094 0 L 4.921875 0 L 4.921875 -3.984375 L 8.667969 -9.96875 L 6.992188 -9.96875 Z M 4.207031 -5.480469 "/></g></g></g><g fill="#1d2e28" fill-opacity="1"><g transform="translate(115.838015, 92.595777)"><g/></g></g><g fill="#1d2e28" fill-opacity="1"><g transform="translate(124.728633, 92.595777)"><g><path d="M 4.769531 -4.964844 L 3.117188 -4.964844 L 3.117188 -4.292969 L 6.683594 0 L 8.515625 0 L 5.425781 -3.675781 C 7.101562 -3.972656 7.957031 -5.285156 7.957031 -6.667969 C 7.957031 -8.222656 6.894531 -9.914062 4.769531 -9.914062 L 1.203125 -9.914062 L 1.203125 0 L 2.601562 0 L 2.601562 -8.488281 L 4.769531 -8.488281 C 5.957031 -8.488281 6.542969 -7.507812 6.542969 -6.667969 C 6.542969 -5.816406 5.957031 -4.964844 4.769531 -4.964844 Z M 4.769531 -4.964844 "/></g></g></g><g fill="#1d2e28" fill-opacity="1"><g transform="translate(138.467609, 92.595777)"><g><path d="M 7.171875 -1.414062 L 2.628906 -1.414062 L 2.628906 -4.292969 L 7.0625 -4.292969 L 7.0625 -5.71875 L 2.628906 -5.71875 L 2.628906 -8.472656 L 7.160156 -8.472656 L 7.160156 -9.886719 L 1.203125 -9.886719 L 1.203125 0 L 7.171875 0 Z M 7.171875 -1.414062 "/></g></g></g><g fill="#1d2e28" fill-opacity="1"><g transform="translate(151.67564, 92.595777)"><g><path d="M 6.097656 -7.257812 L 7.496094 -7.3125 C 7.242188 -9.101562 5.675781 -9.886719 4.167969 -9.886719 C 3.035156 -9.886719 1.859375 -9.4375 1.203125 -8.585938 C 0.839844 -8.109375 0.65625 -7.550781 0.65625 -6.964844 C 0.65625 -6.894531 0.671875 -6.808594 0.671875 -6.726562 L 0.671875 -6.738281 C 0.824219 -4.699219 2.613281 -4.363281 4.140625 -4.207031 C 5.117188 -4.109375 6.125 -3.984375 6.292969 -3.242188 C 6.320312 -3.117188 6.335938 -3.007812 6.335938 -2.910156 C 6.335938 -1.902344 5.1875 -1.3125 4.140625 -1.3125 C 3.230469 -1.3125 2.125 -1.789062 2.027344 -2.699219 L 2.027344 -2.644531 L 2.011719 -2.851562 L 0.585938 -2.824219 L 0.601562 -2.558594 C 0.78125 -0.8125 2.613281 0.0820312 4.125 0.0820312 C 5.886719 0.0820312 7.761719 -1.007812 7.761719 -2.894531 C 7.761719 -3.089844 7.730469 -3.328125 7.691406 -3.539062 C 7.3125 -5.105469 5.648438 -5.453125 4.304688 -5.621094 C 3.214844 -5.71875 2.082031 -5.859375 2.082031 -6.992188 C 2.082031 -7.269531 2.152344 -7.550781 2.320312 -7.761719 C 2.726562 -8.277344 3.46875 -8.5 4.140625 -8.5 C 4.976562 -8.5 5.902344 -8.125 6.097656 -7.257812 Z M 6.097656 -7.257812 "/></g></g></g><g fill="#1d2e28" fill-opacity="1"><g transform="translate(165.400634, 92.595777)"><g><path d="M 0.546875 -4.867188 C 0.546875 -3.507812 1.132812 -2.265625 1.972656 -1.371094 C 2.824219 -0.476562 4.054688 0.0703125 5.382812 0.0703125 C 7.664062 0.0703125 9.453125 -1.441406 10.011719 -3.664062 L 8.628906 -3.664062 C 8.125 -2.179688 6.867188 -1.328125 5.382812 -1.328125 C 4.445312 -1.328125 3.507812 -1.71875 2.894531 -2.363281 C 2.277344 -3.007812 1.914062 -3.886719 1.914062 -4.867188 C 1.914062 -5.871094 2.292969 -6.738281 2.910156 -7.382812 C 3.523438 -8.027344 4.445312 -8.472656 5.382812 -8.472656 C 6.824219 -8.472656 8.027344 -7.691406 8.542969 -6.222656 L 9.941406 -6.222656 C 9.382812 -8.429688 7.621094 -9.871094 5.382812 -9.871094 C 4.054688 -9.871094 2.78125 -9.257812 1.929688 -8.375 C 1.089844 -7.480469 0.546875 -6.25 0.546875 -4.867188 Z M 0.546875 -4.867188 "/></g></g></g><g fill="#1d2e28" fill-opacity="1"><g transform="translate(181.347227, 92.595777)"><g><path d="M 4.699219 0.0976562 C 6.375 0.0976562 8.304688 -0.9375 8.304688 -2.921875 L 8.304688 -9.886719 L 6.878906 -9.886719 L 6.878906 -2.9375 C 6.878906 -1.859375 5.71875 -1.3125 4.699219 -1.3125 C 3.664062 -1.3125 2.503906 -1.84375 2.503906 -2.921875 L 2.503906 -9.886719 L 1.078125 -9.886719 L 1.078125 -2.9375 C 1.078125 -0.9375 2.976562 0.0976562 4.699219 0.0976562 Z M 4.699219 0.0976562 "/></g></g></g><g fill="#1d2e28" fill-opacity="1"><g transform="translate(196.134109, 92.595777)"><g><path d="M 7.171875 -1.414062 L 2.628906 -1.414062 L 2.628906 -4.292969 L 7.0625 -4.292969 L 7.0625 -5.71875 L 2.628906 -5.71875 L 2.628906 -8.472656 L 7.160156 -8.472656 L 7.160156 -9.886719 L 1.203125 -9.886719 L 1.203125 0 L 7.171875 0 Z M 7.171875 -1.414062 "/></g></g></g><g fill="#1d2e28" fill-opacity="1"><g transform="translate(209.342135, 92.595777)"><g/></g></g><g fill="#1d2e28" fill-opacity="1"><g transform="translate(218.232759, 92.595777)"><g><path d="M 4.78125 -9.789062 L 1.203125 -9.789062 L 1.203125 0 L 2.628906 0 L 2.628906 -3.257812 L 4.78125 -3.257812 C 6.894531 -3.257812 7.957031 -4.878906 7.957031 -6.515625 C 7.957031 -8.152344 6.894531 -9.789062 4.78125 -9.789062 Z M 4.78125 -4.65625 L 2.628906 -4.65625 L 2.628906 -8.363281 L 4.78125 -8.363281 C 5.96875 -8.363281 6.558594 -7.4375 6.558594 -6.5 C 6.558594 -5.578125 5.96875 -4.65625 4.78125 -4.65625 Z M 4.78125 -4.65625 "/></g></g></g><g fill="#1d2e28" fill-opacity="1"><g transform="translate(231.943788, 92.595777)"><g><path d="M 7.214844 -1.414062 L 2.613281 -1.414062 L 2.613281 -9.789062 L 1.203125 -9.789062 L 1.203125 0 L 7.214844 0 Z M 7.214844 -1.414062 "/></g></g></g><g fill="#1d2e28" fill-opacity="1"><g transform="translate(244.634846, 92.595777)"><g><path d="M 2.417969 -2.476562 L 6.390625 -2.476562 L 7.328125 0 L 8.835938 0 L 4.90625 -9.914062 L 3.875 -9.914062 L -0.0546875 0 L 1.46875 0 Z M 5.871094 -3.804688 L 2.9375 -3.804688 L 4.40625 -7.664062 Z M 5.871094 -3.804688 "/></g></g></g><g fill="#1d2e28" fill-opacity="1"><g transform="translate(258.90476, 92.595777)"><g><path d="M 3.046875 -8.542969 L 3.046875 0 L 4.460938 0 L 4.460938 -8.542969 L 7.410156 -8.542969 L 7.410156 -9.886719 L 0.0820312 -9.886719 L 0.0820312 -8.542969 Z M 3.046875 -8.542969 "/></g></g></g><g fill="#1d2e28" fill-opacity="1"><g transform="translate(271.819367, 92.595777)"><g><path d="M 1.203125 0 L 2.613281 0 L 2.613281 -4.292969 L 6.53125 -4.292969 L 6.53125 -5.605469 L 2.613281 -5.605469 L 2.613281 -8.5 L 7.03125 -8.5 L 7.03125 -9.871094 L 1.203125 -9.871094 Z M 1.203125 0 "/></g></g></g><g fill="#1d2e28" fill-opacity="1"><g transform="translate(284.566329, 92.595777)"><g><path d="M 0.488281 -4.894531 C 0.488281 -2.070312 2.742188 0.183594 5.566406 0.183594 C 8.390625 0.183594 10.65625 -2.070312 10.65625 -4.894531 C 10.65625 -7.71875 8.390625 -9.984375 5.566406 -9.984375 C 2.742188 -9.984375 0.488281 -7.71875 0.488281 -4.894531 Z M 1.945312 -4.894531 C 1.945312 -6.90625 3.550781 -8.53125 5.566406 -8.53125 C 7.578125 -8.53125 9.199219 -6.90625 9.199219 -4.894531 C 9.199219 -2.878906 7.578125 -1.273438 5.566406 -1.273438 C 3.550781 -1.273438 1.945312 -2.878906 1.945312 -4.894531 Z M 1.945312 -4.894531 "/></g></g></g><g fill="#1d2e28" fill-opacity="1"><g transform="translate(301.211523, 92.595777)"><g><path d="M 4.769531 -4.964844 L 3.117188 -4.964844 L 3.117188 -4.292969 L 6.683594 0 L 8.515625 0 L 5.425781 -3.675781 C 7.101562 -3.972656 7.957031 -5.285156 7.957031 -6.667969 C 7.957031 -8.222656 6.894531 -9.914062 4.769531 -9.914062 L 1.203125 -9.914062 L 1.203125 0 L 2.601562 0 L 2.601562 -8.488281 L 4.769531 -8.488281 C 5.957031 -8.488281 6.542969 -7.507812 6.542969 -6.667969 C 6.542969 -5.816406 5.957031 -4.964844 4.769531 -4.964844 Z M 4.769531 -4.964844 "/></g></g></g><g fill="#1d2e28" fill-opacity="1"><g transform="translate(314.950504, 92.595777)"><g><path d="M 1.203125 0 L 2.613281 0 L 2.613281 -6.894531 L 5.171875 -3.089844 L 5.96875 -3.089844 L 8.53125 -6.894531 L 8.53125 0 L 9.925781 0 L 9.925781 -9.789062 L 8.808594 -9.789062 L 5.578125 -5.035156 L 2.347656 -9.789062 L 1.203125 -9.789062 Z M 1.203125 0 "/></g></g></g></svg>